<?xml version="1.0" encoding="utf-8" standalone="no"?>
<!DOCTYPE svg PUBLIC "-//W3C//DTD SVG 1.1//EN"
  "http://www.w3.org/Graphics/SVG/1.1/DTD/svg11.dtd">
<!-- Created with matplotlib (https://matplotlib.org/) -->
<svg height="144pt" version="1.1" viewBox="0 0 504 144" width="504pt" xmlns="http://www.w3.org/2000/svg" xmlns:xlink="http://www.w3.org/1999/xlink">
 <metadata>
  <rdf:RDF xmlns:cc="http://creativecommons.org/ns#" xmlns:dc="http://purl.org/dc/elements/1.1/" xmlns:rdf="http://www.w3.org/1999/02/22-rdf-syntax-ns#">
   <cc:Work>
    <dc:type rdf:resource="http://purl.org/dc/dcmitype/StillImage"/>
    <dc:date>2021-01-19T11:00:23.745330</dc:date>
    <dc:format>image/svg+xml</dc:format>
    <dc:creator>
     <cc:Agent>
      <dc:title>Matplotlib v3.3.3, https://matplotlib.org/</dc:title>
     </cc:Agent>
    </dc:creator>
   </cc:Work>
  </rdf:RDF>
 </metadata>
 <defs>
  <style type="text/css">*{stroke-linecap:butt;stroke-linejoin:round;}</style>
 </defs>
 <g id="figure_1">
  <g id="patch_1">
   <path d="M 0 144 
L 504 144 
L 504 0 
L 0 0 
z
" style="fill:none;"/>
  </g>
  <g id="axes_1">
   <g id="patch_2">
    <path d="M 63 126 
L 453.6 126 
L 453.6 17.28 
L 63 17.28 
z
" style="fill:#ffffff;"/>
   </g>
   <g id="matplotlib.axis_1">
    <g id="xtick_1"/>
    <g id="xtick_2"/>
    <g id="xtick_3"/>
    <g id="xtick_4"/>
    <g id="xtick_5"/>
   </g>
   <g id="matplotlib.axis_2">
    <g id="ytick_1">
     <g id="line2d_1">
      <defs>
       <path d="M 0 0 
L -3.5 0 
" id="m4dff56887d" style="stroke:#000000;stroke-width:0.8;"/>
      </defs>
      <g>
       <use style="stroke:#000000;stroke-width:0.8;" x="63" xlink:href="#m4dff56887d" y="107.88"/>
      </g>
     </g>
     <g id="text_1">
      <!-- −20 -->
      <g transform="translate(18.011563 114.718594)scale(0.18 -0.18)">
       <defs>
        <path d="M 10.59375 35.5 
L 73.1875 35.5 
L 73.1875 27.203125 
L 10.59375 27.203125 
z
" id="DejaVuSans-8722"/>
        <path d="M 19.1875 8.296875 
L 53.609375 8.296875 
L 53.609375 0 
L 7.328125 0 
L 7.328125 8.296875 
Q 12.9375 14.109375 22.625 23.890625 
Q 32.328125 33.6875 34.8125 36.53125 
Q 39.546875 41.84375 41.421875 45.53125 
Q 43.3125 49.21875 43.3125 52.78125 
Q 43.3125 58.59375 39.234375 62.25 
Q 35.15625 65.921875 28.609375 65.921875 
Q 23.96875 65.921875 18.8125 64.3125 
Q 13.671875 62.703125 7.8125 59.421875 
L 7.8125 69.390625 
Q 13.765625 71.78125 18.9375 73 
Q 24.125 74.21875 28.421875 74.21875 
Q 39.75 74.21875 46.484375 68.546875 
Q 53.21875 62.890625 53.21875 53.421875 
Q 53.21875 48.921875 51.53125 44.890625 
Q 49.859375 40.875 45.40625 35.40625 
Q 44.1875 33.984375 37.640625 27.21875 
Q 31.109375 20.453125 19.1875 8.296875 
z
" id="DejaVuSans-50"/>
        <path d="M 31.78125 66.40625 
Q 24.171875 66.40625 20.328125 58.90625 
Q 16.5 51.421875 16.5 36.375 
Q 16.5 21.390625 20.328125 13.890625 
Q 24.171875 6.390625 31.78125 6.390625 
Q 39.453125 6.390625 43.28125 13.890625 
Q 47.125 21.390625 47.125 36.375 
Q 47.125 51.421875 43.28125 58.90625 
Q 39.453125 66.40625 31.78125 66.40625 
z
M 31.78125 74.21875 
Q 44.046875 74.21875 50.515625 64.515625 
Q 56.984375 54.828125 56.984375 36.375 
Q 56.984375 17.96875 50.515625 8.265625 
Q 44.046875 -1.421875 31.78125 -1.421875 
Q 19.53125 -1.421875 13.0625 8.265625 
Q 6.59375 17.96875 6.59375 36.375 
Q 6.59375 54.828125 13.0625 64.515625 
Q 19.53125 74.21875 31.78125 74.21875 
z
" id="DejaVuSans-48"/>
       </defs>
       <use xlink:href="#DejaVuSans-8722"/>
       <use x="83.789062" xlink:href="#DejaVuSans-50"/>
       <use x="147.412109" xlink:href="#DejaVuSans-48"/>
      </g>
     </g>
    </g>
    <g id="ytick_2">
     <g id="line2d_2">
      <g>
       <use style="stroke:#000000;stroke-width:0.8;" x="63" xlink:href="#m4dff56887d" y="71.64"/>
      </g>
     </g>
     <g id="text_2">
      <!-- 0 -->
      <g transform="translate(44.5475 78.478594)scale(0.18 -0.18)">
       <use xlink:href="#DejaVuSans-48"/>
      </g>
     </g>
    </g>
    <g id="ytick_3">
     <g id="line2d_3">
      <g>
       <use style="stroke:#000000;stroke-width:0.8;" x="63" xlink:href="#m4dff56887d" y="35.4"/>
      </g>
     </g>
     <g id="text_3">
      <!-- 20 -->
      <g transform="translate(33.095 42.238594)scale(0.18 -0.18)">
       <use xlink:href="#DejaVuSans-50"/>
       <use x="63.623047" xlink:href="#DejaVuSans-48"/>
      </g>
     </g>
    </g>
    <g id="text_4">
     <!-- y(t) -->
     <g transform="translate(10.268125 87.517969)rotate(-90)scale(0.18 -0.18)">
      <defs>
       <path d="M 32.171875 -5.078125 
Q 28.375 -14.84375 24.75 -17.8125 
Q 21.140625 -20.796875 15.09375 -20.796875 
L 7.90625 -20.796875 
L 7.90625 -13.28125 
L 13.1875 -13.28125 
Q 16.890625 -13.28125 18.9375 -11.515625 
Q 21 -9.765625 23.484375 -3.21875 
L 25.09375 0.875 
L 2.984375 54.6875 
L 12.5 54.6875 
L 29.59375 11.921875 
L 46.6875 54.6875 
L 56.203125 54.6875 
z
" id="DejaVuSans-121"/>
       <path d="M 31 75.875 
Q 24.46875 64.65625 21.28125 53.65625 
Q 18.109375 42.671875 18.109375 31.390625 
Q 18.109375 20.125 21.3125 9.0625 
Q 24.515625 -2 31 -13.1875 
L 23.1875 -13.1875 
Q 15.875 -1.703125 12.234375 9.375 
Q 8.59375 20.453125 8.59375 31.390625 
Q 8.59375 42.28125 12.203125 53.3125 
Q 15.828125 64.359375 23.1875 75.875 
z
" id="DejaVuSans-40"/>
       <path d="M 18.3125 70.21875 
L 18.3125 54.6875 
L 36.8125 54.6875 
L 36.8125 47.703125 
L 18.3125 47.703125 
L 18.3125 18.015625 
Q 18.3125 11.328125 20.140625 9.421875 
Q 21.96875 7.515625 27.59375 7.515625 
L 36.8125 7.515625 
L 36.8125 0 
L 27.59375 0 
Q 17.1875 0 13.234375 3.875 
Q 9.28125 7.765625 9.28125 18.015625 
L 9.28125 47.703125 
L 2.6875 47.703125 
L 2.6875 54.6875 
L 9.28125 54.6875 
L 9.28125 70.21875 
z
" id="DejaVuSans-116"/>
       <path d="M 8.015625 75.875 
L 15.828125 75.875 
Q 23.140625 64.359375 26.78125 53.3125 
Q 30.421875 42.28125 30.421875 31.390625 
Q 30.421875 20.453125 26.78125 9.375 
Q 23.140625 -1.703125 15.828125 -13.1875 
L 8.015625 -13.1875 
Q 14.5 -2 17.703125 9.0625 
Q 20.90625 20.125 20.90625 31.390625 
Q 20.90625 42.671875 17.703125 53.65625 
Q 14.5 64.65625 8.015625 75.875 
z
" id="DejaVuSans-41"/>
      </defs>
      <use xlink:href="#DejaVuSans-121"/>
      <use x="59.179688" xlink:href="#DejaVuSans-40"/>
      <use x="98.193359" xlink:href="#DejaVuSans-116"/>
      <use x="137.402344" xlink:href="#DejaVuSans-41"/>
     </g>
    </g>
   </g>
   <g id="line2d_4">
    <path clip-path="url(#p314fddb94b)" d="M 65.44125 37.952267 
L 67.8825 31.375886 
L 70.32375 38.853077 
L 72.765 58.464724 
L 75.20625 72.634259 
L 77.6475 76.839655 
L 80.08875 76.708777 
L 82.53 76.050707 
L 84.97125 76.068313 
L 87.4125 77.070048 
L 89.85375 79.266825 
L 92.295 83.117783 
L 94.73625 89.361643 
L 97.1775 98.59968 
L 99.61875 109.195592 
L 102.06 112.819039 
L 104.50125 98.99393 
L 106.9425 77.858888 
L 109.38375 66.861577 
L 111.825 64.737716 
L 114.26625 65.185307 
L 116.7075 65.275754 
L 119.14875 64.154643 
L 121.59 61.437618 
L 124.03125 56.627164 
L 126.4725 49.162931 
L 128.91375 39.444059 
L 131.355 32.028839 
L 133.79625 37.061121 
L 136.2375 55.453836 
L 138.67875 70.730238 
L 141.12 75.96174 
L 143.56125 76.065414 
L 146.0025 75.205291 
L 148.44375 74.752109 
L 150.885 74.990665 
L 153.32625 75.954504 
L 155.7675 77.806693 
L 158.20875 80.93698 
L 160.65 86.023936 
L 163.09125 93.85759 
L 165.5325 104.18851 
L 167.97375 112.299874 
L 170.415 106.930653 
L 172.85625 86.835196 
L 175.2975 70.49803 
L 177.73875 65.104088 
L 180.18 64.859072 
L 182.62125 65.341372 
L 185.0625 65.046579 
L 187.50375 63.569532 
L 189.945 60.671909 
L 192.38625 55.992012 
L 194.8275 49.236615 
L 197.26875 41.206493 
L 199.71 36.022795 
L 202.15125 40.816863 
L 204.5925 55.273672 
L 207.03375 67.875718 
L 209.475 72.983761 
L 211.91625 73.534802 
L 216.79875 71.717578 
L 221.68125 69.938366 
L 224.1225 68.674465 
L 226.56375 66.629728 
L 229.005 63.119718 
L 231.44625 57.043423 
L 233.8875 46.908609 
L 236.32875 32.486368 
L 238.77 21.866883 
L 241.21125 35.588558 
L 243.6525 67.114575 
L 246.09375 83.42833 
L 248.535 85.826531 
L 250.97625 85.178933 
L 253.4175 85.426444 
L 255.85875 87.248668 
L 258.3 90.488215 
L 260.74125 94.500703 
L 263.1825 97.822719 
L 265.62375 98.137384 
L 268.065 94.013481 
L 270.50625 87.330974 
L 272.9475 81.805817 
L 275.38875 79.207398 
L 277.83 79.079567 
L 280.27125 80.510022 
L 282.7125 83.0308 
L 285.15375 86.575376 
L 287.595 91.124108 
L 290.03625 96.136833 
L 292.4775 99.796539 
L 294.91875 99.124986 
L 297.36 92.94024 
L 299.80125 84.773463 
L 302.2425 79.175626 
L 304.68375 77.186272 
L 307.125 77.617867 
L 309.56625 79.394856 
L 312.0075 82.166873 
L 314.44875 86.04806 
L 316.89 91.220973 
L 319.33125 97.27718 
L 321.7725 102.09848 
L 324.21375 101.544783 
L 326.655 93.573164 
L 329.09625 83.195536 
L 331.5375 76.649751 
L 333.97875 74.655453 
L 336.42 75.214916 
L 338.86125 76.914491 
L 341.3025 79.379643 
L 343.74375 82.839616 
L 346.185 87.787912 
L 348.62625 94.548175 
L 351.0675 102.19478 
L 353.50875 106.56374 
L 355.95 101.237376 
L 358.39125 87.489486 
L 360.8325 75.998728 
L 363.27375 71.459872 
L 365.715 71.128 
L 368.15625 72.183984 
L 370.5975 73.521283 
L 373.03875 75.036788 
L 375.48 77.04799 
L 377.92125 80.08377 
L 380.3625 84.918243 
L 382.80375 92.484653 
L 385.245 103.061625 
L 387.68625 112.916093 
L 390.1275 110.326955 
L 392.56875 90.043062 
L 395.01 71.080995 
L 397.45125 64.333 
L 399.8925 63.833991 
L 402.33375 64.253579 
L 404.775 63.724261 
L 407.21625 61.711477 
L 409.6575 57.862221 
L 412.09875 51.776995 
L 414.54 43.598941 
L 416.98125 35.998044 
L 419.4225 36.250937 
L 421.86375 49.056557 
L 424.305 64.562791 
L 426.74625 72.423897 
L 429.1875 73.923974 
L 431.62875 73.14817 
L 434.07 72.058217 
L 438.9525 70.156552 
L 441.39375 68.924663 
L 443.835 66.958094 
L 446.27625 63.563603 
L 448.7175 57.606835 
L 451.15875 47.477706 
L 453.6 32.556315 
L 453.6 32.556315 
" style="fill:none;stroke:#1f77b4;stroke-linecap:square;stroke-width:1.5;"/>
   </g>
   <g id="line2d_5">
    <path clip-path="url(#p314fddb94b)" d="M 65.44125 37.939062 
L 67.8825 31.343566 
L 70.32375 38.809183 
L 72.765 58.447487 
L 75.20625 72.659355 
L 77.6475 76.872142 
L 80.08875 76.755598 
L 82.53 76.111848 
L 84.97125 76.175324 
L 87.4125 77.256737 
L 89.85375 79.602936 
L 92.295 83.717056 
L 94.73625 90.395308 
L 97.1775 100.172043 
L 99.61875 110.810513 
L 102.06 112.662928 
L 104.50125 96.194688 
L 106.9425 75.250159 
L 109.38375 65.801183 
L 111.825 64.450143 
L 114.26625 65.025887 
L 116.7075 65.016108 
L 119.14875 63.73767 
L 121.59 60.879525 
L 124.03125 55.996588 
L 126.4725 48.629463 
L 128.91375 39.455371 
L 131.355 33.211624 
L 133.79625 38.986627 
L 136.2375 56.262811 
L 138.67875 70.140076 
L 141.12 74.921737 
L 143.56125 75.037299 
L 146.0025 74.158866 
L 148.44375 73.578169 
L 150.885 73.535466 
L 153.32625 74.042606 
L 155.7675 75.197063 
L 158.20875 77.308559 
L 160.65 81.009826 
L 163.09125 87.380232 
L 165.5325 97.78537 
L 167.97375 111.870058 
L 170.415 120.281363 
L 172.85625 104.048607 
L 175.2975 74.392326 
L 177.73875 60.364516 
L 180.18 58.500185 
L 182.62125 59.019564 
L 185.0625 58.428979 
L 187.50375 56.047544 
L 189.945 51.956694 
L 192.38625 46.815446 
L 194.8275 42.57161 
L 197.26875 42.671473 
L 199.71 49.038712 
L 202.15125 58.065117 
L 204.5925 64.347483 
L 207.03375 66.541975 
L 209.475 66.058528 
L 211.91625 64.151809 
L 214.3575 61.208278 
L 216.79875 57.05223 
L 219.24 51.41376 
L 221.68125 44.697849 
L 224.1225 39.386794 
L 226.56375 40.489284 
L 229.005 50.136853 
L 231.44625 61.665064 
L 233.8875 68.150002 
L 236.32875 69.674216 
L 238.77 68.781804 
L 241.21125 66.931317 
L 243.6525 64.394097 
L 246.09375 60.808335 
L 248.535 55.526448 
L 250.97625 48.016111 
L 253.4175 39.122266 
L 255.85875 33.837921 
L 258.3 40.56889 
L 260.74125 57.321051 
L 263.1825 70.01623 
L 265.62375 74.212004 
L 268.065 74.158974 
L 270.50625 73.159604 
L 272.9475 72.332309 
L 275.38875 71.816367 
L 282.7125 70.8724 
L 285.15375 70.319329 
L 287.595 69.352799 
L 290.03625 67.610683 
L 292.4775 64.428374 
L 294.91875 58.610296 
L 297.36 48.268406 
L 299.80125 32.038175 
L 302.2425 17.035972 
L 304.68375 30.050862 
L 307.125 68.946971 
L 309.56625 88.509869 
L 312.0075 90.745387 
L 314.44875 89.85302 
L 316.89 90.003632 
L 319.33125 91.423217 
L 321.7725 93.360894 
L 324.21375 94.696376 
L 326.655 94.312364 
L 329.09625 91.870611 
L 331.5375 88.349737 
L 333.97875 85.336894 
L 336.42 83.809509 
L 338.86125 83.861523 
L 341.3025 85.192759 
L 343.74375 87.488135 
L 348.62625 93.435023 
L 351.0675 95.487685 
L 353.50875 95.308591 
L 355.95 92.439128 
L 358.39125 88.148117 
L 360.8325 84.521801 
L 363.27375 82.744417 
L 365.715 82.812736 
L 368.15625 84.297383 
L 370.5975 86.851259 
L 373.03875 90.198295 
L 375.48 93.816024 
L 377.92125 96.552684 
L 380.3625 96.726222 
L 382.80375 93.448907 
L 385.245 88.177249 
L 387.68625 83.6786 
L 390.1275 81.484361 
L 392.56875 81.474195 
L 395.01 83.032435 
L 397.45125 85.760075 
L 399.8925 89.462936 
L 402.33375 93.762062 
L 404.775 97.522413 
L 407.21625 98.613989 
L 409.6575 95.29378 
L 412.09875 88.84671 
L 414.54 82.998918 
L 416.98125 80.023832 
L 419.4225 79.730251 
L 421.86375 81.206007 
L 424.305 83.922676 
L 426.74625 87.770793 
L 431.62875 97.748127 
L 434.07 100.793038 
L 436.51125 98.662193 
L 438.9525 91.225742 
L 441.39375 83.156799 
L 443.835 78.526065 
L 446.27625 77.468591 
L 448.7175 78.579267 
L 451.15875 80.96738 
L 453.6 84.484853 
L 453.6 84.484853 
" style="fill:none;stroke:#ff7f0e;stroke-linecap:square;stroke-width:1.5;"/>
   </g>
   <g id="patch_3">
    <path d="M 63 126 
L 63 17.28 
" style="fill:none;stroke:#000000;stroke-linecap:square;stroke-linejoin:miter;stroke-width:0.8;"/>
   </g>
   <g id="patch_4">
    <path d="M 453.6 126 
L 453.6 17.28 
" style="fill:none;stroke:#000000;stroke-linecap:square;stroke-linejoin:miter;stroke-width:0.8;"/>
   </g>
   <g id="patch_5">
    <path d="M 63 126 
L 453.6 126 
" style="fill:none;stroke:#000000;stroke-linecap:square;stroke-linejoin:miter;stroke-width:0.8;"/>
   </g>
   <g id="patch_6">
    <path d="M 63 17.28 
L 453.6 17.28 
" style="fill:none;stroke:#000000;stroke-linecap:square;stroke-linejoin:miter;stroke-width:0.8;"/>
   </g>
  </g>
 </g>
 <defs>
  <clipPath id="p314fddb94b">
   <rect height="108.72" width="390.6" x="63" y="17.28"/>
  </clipPath>
 </defs>
</svg>
