<?xml version="1.0" encoding="utf-8" standalone="no"?>
<!DOCTYPE svg PUBLIC "-//W3C//DTD SVG 1.1//EN"
  "http://www.w3.org/Graphics/SVG/1.1/DTD/svg11.dtd">
<!-- Created with matplotlib (https://matplotlib.org/) -->
<svg height="144pt" version="1.1" viewBox="0 0 504 144" width="504pt" xmlns="http://www.w3.org/2000/svg" xmlns:xlink="http://www.w3.org/1999/xlink">
 <metadata>
  <rdf:RDF xmlns:cc="http://creativecommons.org/ns#" xmlns:dc="http://purl.org/dc/elements/1.1/" xmlns:rdf="http://www.w3.org/1999/02/22-rdf-syntax-ns#">
   <cc:Work>
    <dc:type rdf:resource="http://purl.org/dc/dcmitype/StillImage"/>
    <dc:date>2021-01-19T11:00:23.813345</dc:date>
    <dc:format>image/svg+xml</dc:format>
    <dc:creator>
     <cc:Agent>
      <dc:title>Matplotlib v3.3.3, https://matplotlib.org/</dc:title>
     </cc:Agent>
    </dc:creator>
   </cc:Work>
  </rdf:RDF>
 </metadata>
 <defs>
  <style type="text/css">*{stroke-linecap:butt;stroke-linejoin:round;}</style>
 </defs>
 <g id="figure_1">
  <g id="patch_1">
   <path d="M 0 144 
L 504 144 
L 504 0 
L 0 0 
z
" style="fill:none;"/>
  </g>
  <g id="axes_1">
   <g id="patch_2">
    <path d="M 63 126 
L 453.6 126 
L 453.6 17.28 
L 63 17.28 
z
" style="fill:#ffffff;"/>
   </g>
   <g id="matplotlib.axis_1">
    <g id="xtick_1"/>
    <g id="xtick_2"/>
    <g id="xtick_3"/>
    <g id="xtick_4"/>
    <g id="xtick_5"/>
   </g>
   <g id="matplotlib.axis_2">
    <g id="ytick_1">
     <g id="line2d_1">
      <defs>
       <path d="M 0 0 
L -3.5 0 
" id="m7116315193" style="stroke:#000000;stroke-width:0.8;"/>
      </defs>
      <g>
       <use style="stroke:#000000;stroke-width:0.8;" x="63" xlink:href="#m7116315193" y="126"/>
      </g>
     </g>
     <g id="text_1">
      <!-- 0 -->
      <g transform="translate(44.5475 132.838594)scale(0.18 -0.18)">
       <defs>
        <path d="M 31.78125 66.40625 
Q 24.171875 66.40625 20.328125 58.90625 
Q 16.5 51.421875 16.5 36.375 
Q 16.5 21.390625 20.328125 13.890625 
Q 24.171875 6.390625 31.78125 6.390625 
Q 39.453125 6.390625 43.28125 13.890625 
Q 47.125 21.390625 47.125 36.375 
Q 47.125 51.421875 43.28125 58.90625 
Q 39.453125 66.40625 31.78125 66.40625 
z
M 31.78125 74.21875 
Q 44.046875 74.21875 50.515625 64.515625 
Q 56.984375 54.828125 56.984375 36.375 
Q 56.984375 17.96875 50.515625 8.265625 
Q 44.046875 -1.421875 31.78125 -1.421875 
Q 19.53125 -1.421875 13.0625 8.265625 
Q 6.59375 17.96875 6.59375 36.375 
Q 6.59375 54.828125 13.0625 64.515625 
Q 19.53125 74.21875 31.78125 74.21875 
z
" id="DejaVuSans-48"/>
       </defs>
       <use xlink:href="#DejaVuSans-48"/>
      </g>
     </g>
    </g>
    <g id="ytick_2">
     <g id="line2d_2">
      <g>
       <use style="stroke:#000000;stroke-width:0.8;" x="63" xlink:href="#m7116315193" y="89.76"/>
      </g>
     </g>
     <g id="text_2">
      <!-- 20 -->
      <g transform="translate(33.095 96.598594)scale(0.18 -0.18)">
       <defs>
        <path d="M 19.1875 8.296875 
L 53.609375 8.296875 
L 53.609375 0 
L 7.328125 0 
L 7.328125 8.296875 
Q 12.9375 14.109375 22.625 23.890625 
Q 32.328125 33.6875 34.8125 36.53125 
Q 39.546875 41.84375 41.421875 45.53125 
Q 43.3125 49.21875 43.3125 52.78125 
Q 43.3125 58.59375 39.234375 62.25 
Q 35.15625 65.921875 28.609375 65.921875 
Q 23.96875 65.921875 18.8125 64.3125 
Q 13.671875 62.703125 7.8125 59.421875 
L 7.8125 69.390625 
Q 13.765625 71.78125 18.9375 73 
Q 24.125 74.21875 28.421875 74.21875 
Q 39.75 74.21875 46.484375 68.546875 
Q 53.21875 62.890625 53.21875 53.421875 
Q 53.21875 48.921875 51.53125 44.890625 
Q 49.859375 40.875 45.40625 35.40625 
Q 44.1875 33.984375 37.640625 27.21875 
Q 31.109375 20.453125 19.1875 8.296875 
z
" id="DejaVuSans-50"/>
       </defs>
       <use xlink:href="#DejaVuSans-50"/>
       <use x="63.623047" xlink:href="#DejaVuSans-48"/>
      </g>
     </g>
    </g>
    <g id="ytick_3">
     <g id="line2d_3">
      <g>
       <use style="stroke:#000000;stroke-width:0.8;" x="63" xlink:href="#m7116315193" y="53.52"/>
      </g>
     </g>
     <g id="text_3">
      <!-- 40 -->
      <g transform="translate(33.095 60.358594)scale(0.18 -0.18)">
       <defs>
        <path d="M 37.796875 64.3125 
L 12.890625 25.390625 
L 37.796875 25.390625 
z
M 35.203125 72.90625 
L 47.609375 72.90625 
L 47.609375 25.390625 
L 58.015625 25.390625 
L 58.015625 17.1875 
L 47.609375 17.1875 
L 47.609375 0 
L 37.796875 0 
L 37.796875 17.1875 
L 4.890625 17.1875 
L 4.890625 26.703125 
z
" id="DejaVuSans-52"/>
       </defs>
       <use xlink:href="#DejaVuSans-52"/>
       <use x="63.623047" xlink:href="#DejaVuSans-48"/>
      </g>
     </g>
    </g>
    <g id="ytick_4">
     <g id="line2d_4">
      <g>
       <use style="stroke:#000000;stroke-width:0.8;" x="63" xlink:href="#m7116315193" y="17.28"/>
      </g>
     </g>
     <g id="text_4">
      <!-- 60 -->
      <g transform="translate(33.095 24.118594)scale(0.18 -0.18)">
       <defs>
        <path d="M 33.015625 40.375 
Q 26.375 40.375 22.484375 35.828125 
Q 18.609375 31.296875 18.609375 23.390625 
Q 18.609375 15.53125 22.484375 10.953125 
Q 26.375 6.390625 33.015625 6.390625 
Q 39.65625 6.390625 43.53125 10.953125 
Q 47.40625 15.53125 47.40625 23.390625 
Q 47.40625 31.296875 43.53125 35.828125 
Q 39.65625 40.375 33.015625 40.375 
z
M 52.59375 71.296875 
L 52.59375 62.3125 
Q 48.875 64.0625 45.09375 64.984375 
Q 41.3125 65.921875 37.59375 65.921875 
Q 27.828125 65.921875 22.671875 59.328125 
Q 17.53125 52.734375 16.796875 39.40625 
Q 19.671875 43.65625 24.015625 45.921875 
Q 28.375 48.1875 33.59375 48.1875 
Q 44.578125 48.1875 50.953125 41.515625 
Q 57.328125 34.859375 57.328125 23.390625 
Q 57.328125 12.15625 50.6875 5.359375 
Q 44.046875 -1.421875 33.015625 -1.421875 
Q 20.359375 -1.421875 13.671875 8.265625 
Q 6.984375 17.96875 6.984375 36.375 
Q 6.984375 53.65625 15.1875 63.9375 
Q 23.390625 74.21875 37.203125 74.21875 
Q 40.921875 74.21875 44.703125 73.484375 
Q 48.484375 72.75 52.59375 71.296875 
z
" id="DejaVuSans-54"/>
       </defs>
       <use xlink:href="#DejaVuSans-54"/>
       <use x="63.623047" xlink:href="#DejaVuSans-48"/>
      </g>
     </g>
    </g>
    <g id="text_5">
     <!-- z(t) -->
     <g transform="translate(25.351562 86.914687)rotate(-90)scale(0.18 -0.18)">
      <defs>
       <path d="M 5.515625 54.6875 
L 48.1875 54.6875 
L 48.1875 46.484375 
L 14.40625 7.171875 
L 48.1875 7.171875 
L 48.1875 0 
L 4.296875 0 
L 4.296875 8.203125 
L 38.09375 47.515625 
L 5.515625 47.515625 
z
" id="DejaVuSans-122"/>
       <path d="M 31 75.875 
Q 24.46875 64.65625 21.28125 53.65625 
Q 18.109375 42.671875 18.109375 31.390625 
Q 18.109375 20.125 21.3125 9.0625 
Q 24.515625 -2 31 -13.1875 
L 23.1875 -13.1875 
Q 15.875 -1.703125 12.234375 9.375 
Q 8.59375 20.453125 8.59375 31.390625 
Q 8.59375 42.28125 12.203125 53.3125 
Q 15.828125 64.359375 23.1875 75.875 
z
" id="DejaVuSans-40"/>
       <path d="M 18.3125 70.21875 
L 18.3125 54.6875 
L 36.8125 54.6875 
L 36.8125 47.703125 
L 18.3125 47.703125 
L 18.3125 18.015625 
Q 18.3125 11.328125 20.140625 9.421875 
Q 21.96875 7.515625 27.59375 7.515625 
L 36.8125 7.515625 
L 36.8125 0 
L 27.59375 0 
Q 17.1875 0 13.234375 3.875 
Q 9.28125 7.765625 9.28125 18.015625 
L 9.28125 47.703125 
L 2.6875 47.703125 
L 2.6875 54.6875 
L 9.28125 54.6875 
L 9.28125 70.21875 
z
" id="DejaVuSans-116"/>
       <path d="M 8.015625 75.875 
L 15.828125 75.875 
Q 23.140625 64.359375 26.78125 53.3125 
Q 30.421875 42.28125 30.421875 31.390625 
Q 30.421875 20.453125 26.78125 9.375 
Q 23.140625 -1.703125 15.828125 -13.1875 
L 8.015625 -13.1875 
Q 14.5 -2 17.703125 9.0625 
Q 20.90625 20.125 20.90625 31.390625 
Q 20.90625 42.671875 17.703125 53.65625 
Q 14.5 64.65625 8.015625 75.875 
z
" id="DejaVuSans-41"/>
      </defs>
      <use xlink:href="#DejaVuSans-122"/>
      <use x="52.490234" xlink:href="#DejaVuSans-40"/>
      <use x="91.503906" xlink:href="#DejaVuSans-116"/>
      <use x="130.712891" xlink:href="#DejaVuSans-41"/>
     </g>
    </g>
   </g>
   <g id="line2d_5">
    <path clip-path="url(#p6ea956f86d)" d="M 65.44125 82.373975 
L 67.8825 65.130673 
L 70.32375 43.998244 
L 72.765 36.237366 
L 75.20625 44.181346 
L 77.6475 55.660468 
L 80.08875 65.32693 
L 82.53 73.139246 
L 84.97125 79.681971 
L 87.4125 85.187223 
L 89.85375 89.694933 
L 92.295 92.927971 
L 94.73625 94.073513 
L 97.1775 91.068783 
L 99.61875 80.016503 
L 102.06 58.734734 
L 104.50125 38.61188 
L 106.9425 37.100894 
L 111.825 59.581864 
L 114.26625 68.523856 
L 116.7075 75.665677 
L 119.14875 81.47633 
L 121.59 85.952913 
L 124.03125 88.665849 
L 126.4725 88.272994 
L 128.91375 81.970259 
L 131.355 66.443042 
L 133.79625 45.484261 
L 136.2375 35.398339 
L 138.67875 41.677224 
L 141.12 53.057076 
L 143.56125 63.064663 
L 146.0025 71.23288 
L 148.44375 78.125095 
L 150.885 84.014061 
L 153.32625 89.063982 
L 155.7675 93.260803 
L 158.20875 96.457457 
L 160.65 98.144705 
L 163.09125 96.941738 
L 165.5325 89.833308 
L 167.97375 72.984073 
L 170.415 50.126505 
L 172.85625 39.253094 
L 175.2975 46.060621 
L 177.73875 57.658207 
L 180.18 67.303383 
L 182.62125 74.838224 
L 185.0625 80.927108 
L 187.50375 85.850845 
L 189.945 89.512552 
L 192.38625 91.383041 
L 194.8275 90.229147 
L 197.26875 83.833642 
L 199.71 70.284127 
L 202.15125 53.606139 
L 204.5925 45.477933 
L 207.03375 49.770112 
L 211.91625 67.752505 
L 214.3575 75.215456 
L 216.79875 81.596246 
L 219.24 87.131502 
L 221.68125 91.949192 
L 224.1225 96.11696 
L 226.56375 99.636179 
L 229.005 102.351546 
L 231.44625 103.647352 
L 233.8875 101.641777 
L 236.32875 91.412173 
L 238.77 65.737838 
L 241.21125 33.515592 
L 243.6525 27.437267 
L 246.09375 42.451521 
L 248.535 56.048031 
L 250.97625 64.822095 
L 253.4175 70.634662 
L 255.85875 74.254421 
L 258.3 75.571034 
L 260.74125 73.981101 
L 263.1825 69.018657 
L 265.62375 61.569422 
L 268.065 54.888371 
L 270.50625 52.651214 
L 272.9475 55.293085 
L 275.38875 60.531092 
L 277.83 66.274509 
L 280.27125 71.496421 
L 282.7125 75.68144 
L 285.15375 78.333467 
L 287.595 78.72058 
L 290.03625 75.839438 
L 292.4775 69.018663 
L 294.91875 59.696599 
L 297.36 52.540367 
L 299.80125 51.596929 
L 302.2425 55.95373 
L 307.125 68.67397 
L 309.56625 74.235606 
L 312.0075 78.663261 
L 314.44875 81.513871 
L 316.89 81.967854 
L 319.33125 78.709327 
L 321.7725 70.512121 
L 324.21375 58.748253 
L 326.655 49.689933 
L 329.09625 48.938958 
L 331.5375 54.662208 
L 333.97875 62.251531 
L 336.42 69.436525 
L 338.86125 75.687601 
L 341.3025 80.875501 
L 343.74375 84.775898 
L 346.185 86.786638 
L 348.62625 85.638606 
L 351.0675 79.199427 
L 353.50875 66.02365 
L 355.95 50.613769 
L 358.39125 43.81153 
L 360.8325 48.392918 
L 365.715 66.096137 
L 368.15625 73.581718 
L 370.5975 80.008748 
L 373.03875 85.550107 
L 375.48 90.237135 
L 377.92125 93.957871 
L 380.3625 96.273834 
L 382.80375 95.967331 
L 385.245 90.160411 
L 387.68625 74.37407 
L 390.1275 50.027961 
L 392.56875 35.494186 
L 395.01 41.175975 
L 397.45125 53.592798 
L 399.8925 64.00571 
L 402.33375 71.958027 
L 404.775 78.26804 
L 407.21625 83.19035 
L 409.6575 86.456956 
L 412.09875 87.157411 
L 414.54 83.310114 
L 416.98125 72.194519 
L 419.4225 54.585807 
L 421.86375 41.301921 
L 424.305 42.081246 
L 426.74625 51.28287 
L 429.1875 61.125329 
L 431.62875 69.528575 
L 434.07 76.662429 
L 436.51125 82.818918 
L 438.9525 88.179445 
L 441.39375 92.825973 
L 443.835 96.770354 
L 446.27625 99.890401 
L 448.7175 101.636202 
L 451.15875 100.209676 
L 453.6 90.671426 
L 453.6 90.671426 
" style="fill:none;stroke:#1f77b4;stroke-linecap:square;stroke-width:1.5;"/>
   </g>
   <g id="line2d_6">
    <path clip-path="url(#p6ea956f86d)" d="M 65.44125 82.370475 
L 67.8825 65.103669 
L 70.32375 43.921414 
L 72.765 36.132833 
L 75.20625 44.079783 
L 77.6475 55.581334 
L 80.08875 65.260105 
L 82.53 73.083179 
L 84.97125 79.618622 
L 87.4125 85.121171 
L 89.85375 89.590117 
L 92.295 92.722669 
L 94.73625 93.576818 
L 97.1775 89.818826 
L 99.61875 77.242229 
L 102.06 54.476022 
L 104.50125 35.673006 
L 106.9425 36.947365 
L 109.38375 48.920837 
L 111.825 60.156842 
L 114.26625 68.883042 
L 116.7075 75.858699 
L 119.14875 81.517628 
L 121.59 85.83079 
L 124.03125 88.282743 
L 126.4725 87.511196 
L 128.91375 80.826392 
L 131.355 65.540597 
L 133.79625 46.241739 
L 136.2375 37.747594 
L 138.67875 43.940852 
L 141.12 54.705154 
L 143.56125 64.329118 
L 146.0025 72.302476 
L 148.44375 79.07239 
L 150.885 84.926682 
L 153.32625 90.00872 
L 155.7675 94.387818 
L 158.20875 98.052471 
L 160.65 100.806665 
L 163.09125 101.943564 
L 165.5325 99.361038 
L 167.97375 87.945698 
L 170.415 61.517545 
L 172.85625 32.060295 
L 175.2975 29.269149 
L 177.73875 44.147084 
L 180.18 57.110827 
L 182.62125 65.729613 
L 185.0625 71.60279 
L 187.50375 75.312665 
L 189.945 76.486935 
L 192.38625 74.145765 
L 194.8275 67.383563 
L 197.26875 57.361114 
L 199.71 49.102036 
L 202.15125 47.642048 
L 204.5925 52.272371 
L 209.475 66.055131 
L 211.91625 72.0409 
L 214.3575 76.823371 
L 216.79875 79.938822 
L 219.24 80.469322 
L 221.68125 76.84635 
L 224.1225 67.53783 
L 226.56375 54.244676 
L 229.005 44.702308 
L 231.44625 45.052064 
L 233.8875 52.094133 
L 236.32875 60.505552 
L 238.77 68.174244 
L 241.21125 74.776863 
L 243.6525 80.279344 
L 246.09375 84.478168 
L 248.535 86.756596 
L 250.97625 85.665721 
L 253.4175 78.535205 
L 255.85875 63.164367 
L 258.3 45.012755 
L 260.74125 38.085524 
L 263.1825 44.653952 
L 265.62375 55.147015 
L 268.065 64.553627 
L 270.50625 72.433245 
L 272.9475 79.171462 
L 275.38875 85.026086 
L 277.83 90.140876 
L 280.27125 94.614686 
L 282.7125 98.526734 
L 285.15375 101.941498 
L 287.595 104.903676 
L 290.03625 107.415571 
L 292.4775 109.358996 
L 294.91875 110.232459 
L 297.36 108.305588 
L 299.80125 98.39719 
L 302.2425 70.509458 
L 304.68375 30.26821 
L 307.125 21.236804 
L 309.56625 39.349012 
L 312.0075 53.895875 
L 314.44875 61.628234 
L 316.89 65.524987 
L 319.33125 66.861405 
L 321.7725 65.914147 
L 324.21375 62.963541 
L 326.655 58.977985 
L 329.09625 55.695905 
L 331.5375 54.67374 
L 333.97875 56.175295 
L 336.42 59.304721 
L 338.86125 62.926546 
L 341.3025 66.164864 
L 343.74375 68.368207 
L 346.185 68.959878 
L 348.62625 67.44468 
L 351.0675 63.734188 
L 353.50875 58.75654 
L 355.95 54.613314 
L 358.39125 53.306846 
L 360.8325 55.121712 
L 363.27375 58.842832 
L 365.715 63.079209 
L 368.15625 66.868313 
L 370.5975 69.537947 
L 373.03875 70.45784 
L 375.48 68.985298 
L 377.92125 64.80708 
L 380.3625 58.784913 
L 382.80375 53.475133 
L 385.245 51.616879 
L 387.68625 53.681175 
L 390.1275 58.060868 
L 392.56875 63.01938 
L 395.01 67.492862 
L 397.45125 70.814129 
L 399.8925 72.331735 
L 402.33375 71.250887 
L 404.775 66.896758 
L 409.6575 52.673591 
L 412.09875 49.567322 
L 414.54 51.56538 
L 416.98125 56.617693 
L 419.4225 62.430459 
L 421.86375 67.764749 
L 424.305 71.988134 
L 426.74625 74.50549 
L 429.1875 74.454411 
L 431.62875 70.734127 
L 434.07 62.913006 
L 436.51125 53.341571 
L 438.9525 47.408118 
L 441.39375 48.277702 
L 443.835 53.801366 
L 446.27625 60.630364 
L 448.7175 67.058909 
L 451.15875 72.477752 
L 453.6 76.470488 
L 453.6 76.470488 
" style="fill:none;stroke:#ff7f0e;stroke-linecap:square;stroke-width:1.5;"/>
   </g>
   <g id="patch_3">
    <path d="M 63 126 
L 63 17.28 
" style="fill:none;stroke:#000000;stroke-linecap:square;stroke-linejoin:miter;stroke-width:0.8;"/>
   </g>
   <g id="patch_4">
    <path d="M 453.6 126 
L 453.6 17.28 
" style="fill:none;stroke:#000000;stroke-linecap:square;stroke-linejoin:miter;stroke-width:0.8;"/>
   </g>
   <g id="patch_5">
    <path d="M 63 126 
L 453.6 126 
" style="fill:none;stroke:#000000;stroke-linecap:square;stroke-linejoin:miter;stroke-width:0.8;"/>
   </g>
   <g id="patch_6">
    <path d="M 63 17.28 
L 453.6 17.28 
" style="fill:none;stroke:#000000;stroke-linecap:square;stroke-linejoin:miter;stroke-width:0.8;"/>
   </g>
  </g>
 </g>
 <defs>
  <clipPath id="p6ea956f86d">
   <rect height="108.72" width="390.6" x="63" y="17.28"/>
  </clipPath>
 </defs>
</svg>
