<?xml version="1.0" encoding="utf-8" standalone="no"?>
<!DOCTYPE svg PUBLIC "-//W3C//DTD SVG 1.1//EN"
  "http://www.w3.org/Graphics/SVG/1.1/DTD/svg11.dtd">
<!-- Created with matplotlib (https://matplotlib.org/) -->
<svg height="144pt" version="1.1" viewBox="0 0 504 144" width="504pt" xmlns="http://www.w3.org/2000/svg" xmlns:xlink="http://www.w3.org/1999/xlink">
 <metadata>
  <rdf:RDF xmlns:cc="http://creativecommons.org/ns#" xmlns:dc="http://purl.org/dc/elements/1.1/" xmlns:rdf="http://www.w3.org/1999/02/22-rdf-syntax-ns#">
   <cc:Work>
    <dc:type rdf:resource="http://purl.org/dc/dcmitype/StillImage"/>
    <dc:date>2021-01-19T11:00:19.718374</dc:date>
    <dc:format>image/svg+xml</dc:format>
    <dc:creator>
     <cc:Agent>
      <dc:title>Matplotlib v3.3.3, https://matplotlib.org/</dc:title>
     </cc:Agent>
    </dc:creator>
   </cc:Work>
  </rdf:RDF>
 </metadata>
 <defs>
  <style type="text/css">*{stroke-linecap:butt;stroke-linejoin:round;}</style>
 </defs>
 <g id="figure_1">
  <g id="patch_1">
   <path d="M 0 144 
L 504 144 
L 504 0 
L 0 0 
z
" style="fill:none;"/>
  </g>
  <g id="axes_1">
   <g id="patch_2">
    <path d="M 63 126 
L 453.6 126 
L 453.6 17.28 
L 63 17.28 
z
" style="fill:#ffffff;"/>
   </g>
   <g id="matplotlib.axis_1">
    <g id="xtick_1"/>
    <g id="xtick_2"/>
    <g id="xtick_3"/>
    <g id="xtick_4"/>
    <g id="xtick_5"/>
   </g>
   <g id="matplotlib.axis_2">
    <g id="ytick_1">
     <g id="line2d_1">
      <defs>
       <path d="M 0 0 
L -3.5 0 
" id="m1ef80af02e" style="stroke:#000000;stroke-width:0.8;"/>
      </defs>
      <g>
       <use style="stroke:#000000;stroke-width:0.8;" x="63" xlink:href="#m1ef80af02e" y="115.128"/>
      </g>
     </g>
     <g id="text_1">
      <!-- −20 -->
      <g transform="translate(18.011563 121.966594)scale(0.18 -0.18)">
       <defs>
        <path d="M 10.59375 35.5 
L 73.1875 35.5 
L 73.1875 27.203125 
L 10.59375 27.203125 
z
" id="DejaVuSans-8722"/>
        <path d="M 19.1875 8.296875 
L 53.609375 8.296875 
L 53.609375 0 
L 7.328125 0 
L 7.328125 8.296875 
Q 12.9375 14.109375 22.625 23.890625 
Q 32.328125 33.6875 34.8125 36.53125 
Q 39.546875 41.84375 41.421875 45.53125 
Q 43.3125 49.21875 43.3125 52.78125 
Q 43.3125 58.59375 39.234375 62.25 
Q 35.15625 65.921875 28.609375 65.921875 
Q 23.96875 65.921875 18.8125 64.3125 
Q 13.671875 62.703125 7.8125 59.421875 
L 7.8125 69.390625 
Q 13.765625 71.78125 18.9375 73 
Q 24.125 74.21875 28.421875 74.21875 
Q 39.75 74.21875 46.484375 68.546875 
Q 53.21875 62.890625 53.21875 53.421875 
Q 53.21875 48.921875 51.53125 44.890625 
Q 49.859375 40.875 45.40625 35.40625 
Q 44.1875 33.984375 37.640625 27.21875 
Q 31.109375 20.453125 19.1875 8.296875 
z
" id="DejaVuSans-50"/>
        <path d="M 31.78125 66.40625 
Q 24.171875 66.40625 20.328125 58.90625 
Q 16.5 51.421875 16.5 36.375 
Q 16.5 21.390625 20.328125 13.890625 
Q 24.171875 6.390625 31.78125 6.390625 
Q 39.453125 6.390625 43.28125 13.890625 
Q 47.125 21.390625 47.125 36.375 
Q 47.125 51.421875 43.28125 58.90625 
Q 39.453125 66.40625 31.78125 66.40625 
z
M 31.78125 74.21875 
Q 44.046875 74.21875 50.515625 64.515625 
Q 56.984375 54.828125 56.984375 36.375 
Q 56.984375 17.96875 50.515625 8.265625 
Q 44.046875 -1.421875 31.78125 -1.421875 
Q 19.53125 -1.421875 13.0625 8.265625 
Q 6.59375 17.96875 6.59375 36.375 
Q 6.59375 54.828125 13.0625 64.515625 
Q 19.53125 74.21875 31.78125 74.21875 
z
" id="DejaVuSans-48"/>
       </defs>
       <use xlink:href="#DejaVuSans-8722"/>
       <use x="83.789062" xlink:href="#DejaVuSans-50"/>
       <use x="147.412109" xlink:href="#DejaVuSans-48"/>
      </g>
     </g>
    </g>
    <g id="ytick_2">
     <g id="line2d_2">
      <g>
       <use style="stroke:#000000;stroke-width:0.8;" x="63" xlink:href="#m1ef80af02e" y="71.64"/>
      </g>
     </g>
     <g id="text_2">
      <!-- 0 -->
      <g transform="translate(44.5475 78.478594)scale(0.18 -0.18)">
       <use xlink:href="#DejaVuSans-48"/>
      </g>
     </g>
    </g>
    <g id="ytick_3">
     <g id="line2d_3">
      <g>
       <use style="stroke:#000000;stroke-width:0.8;" x="63" xlink:href="#m1ef80af02e" y="28.152"/>
      </g>
     </g>
     <g id="text_3">
      <!-- 20 -->
      <g transform="translate(33.095 34.990594)scale(0.18 -0.18)">
       <use xlink:href="#DejaVuSans-50"/>
       <use x="63.623047" xlink:href="#DejaVuSans-48"/>
      </g>
     </g>
    </g>
    <g id="text_4">
     <!-- x(t) -->
     <g transform="translate(10.268125 87.517969)rotate(-90)scale(0.18 -0.18)">
      <defs>
       <path d="M 54.890625 54.6875 
L 35.109375 28.078125 
L 55.90625 0 
L 45.3125 0 
L 29.390625 21.484375 
L 13.484375 0 
L 2.875 0 
L 24.125 28.609375 
L 4.6875 54.6875 
L 15.28125 54.6875 
L 29.78125 35.203125 
L 44.28125 54.6875 
z
" id="DejaVuSans-120"/>
       <path d="M 31 75.875 
Q 24.46875 64.65625 21.28125 53.65625 
Q 18.109375 42.671875 18.109375 31.390625 
Q 18.109375 20.125 21.3125 9.0625 
Q 24.515625 -2 31 -13.1875 
L 23.1875 -13.1875 
Q 15.875 -1.703125 12.234375 9.375 
Q 8.59375 20.453125 8.59375 31.390625 
Q 8.59375 42.28125 12.203125 53.3125 
Q 15.828125 64.359375 23.1875 75.875 
z
" id="DejaVuSans-40"/>
       <path d="M 18.3125 70.21875 
L 18.3125 54.6875 
L 36.8125 54.6875 
L 36.8125 47.703125 
L 18.3125 47.703125 
L 18.3125 18.015625 
Q 18.3125 11.328125 20.140625 9.421875 
Q 21.96875 7.515625 27.59375 7.515625 
L 36.8125 7.515625 
L 36.8125 0 
L 27.59375 0 
Q 17.1875 0 13.234375 3.875 
Q 9.28125 7.765625 9.28125 18.015625 
L 9.28125 47.703125 
L 2.6875 47.703125 
L 2.6875 54.6875 
L 9.28125 54.6875 
L 9.28125 70.21875 
z
" id="DejaVuSans-116"/>
       <path d="M 8.015625 75.875 
L 15.828125 75.875 
Q 23.140625 64.359375 26.78125 53.3125 
Q 30.421875 42.28125 30.421875 31.390625 
Q 30.421875 20.453125 26.78125 9.375 
Q 23.140625 -1.703125 15.828125 -13.1875 
L 8.015625 -13.1875 
Q 14.5 -2 17.703125 9.0625 
Q 20.90625 20.125 20.90625 31.390625 
Q 20.90625 42.671875 17.703125 53.65625 
Q 14.5 64.65625 8.015625 75.875 
z
" id="DejaVuSans-41"/>
      </defs>
      <use xlink:href="#DejaVuSans-120"/>
      <use x="59.179688" xlink:href="#DejaVuSans-40"/>
      <use x="98.193359" xlink:href="#DejaVuSans-116"/>
      <use x="137.402344" xlink:href="#DejaVuSans-41"/>
     </g>
    </g>
   </g>
   <g id="line2d_4">
    <path clip-path="url(#p1daf06e5af)" d="M 65.44125 48.377066 
L 67.8825 39.591086 
L 70.32375 34.390237 
L 72.765 38.441562 
L 77.6475 59.964167 
L 80.08875 67.064905 
L 82.53 71.098041 
L 84.97125 73.40041 
L 87.4125 75.077764 
L 89.85375 76.909723 
L 92.295 79.542833 
L 94.73625 83.682252 
L 97.1775 90.107672 
L 102.06 107.762261 
L 104.50125 109.417184 
L 106.9425 100.65864 
L 109.38375 88.169542 
L 111.825 78.434784 
L 114.26625 72.51535 
L 116.7075 69.088238 
L 121.59 64.25182 
L 124.03125 60.924368 
L 126.4725 55.970431 
L 128.91375 48.928462 
L 131.355 40.737282 
L 133.79625 35.560705 
L 136.2375 38.561396 
L 141.12 58.329082 
L 143.56125 65.294077 
L 146.0025 69.236227 
L 148.44375 71.28295 
L 150.885 72.416008 
L 153.32625 73.273518 
L 155.7675 74.275904 
L 158.20875 75.796357 
L 160.65 78.322081 
L 163.09125 82.603074 
L 165.5325 89.681827 
L 170.415 110.958823 
L 172.85625 112.454075 
L 175.2975 100.46754 
L 177.73875 85.093977 
L 180.18 73.942324 
L 182.62125 67.20986 
L 185.0625 62.84787 
L 187.50375 59.078389 
L 189.945 54.788469 
L 194.8275 44.20286 
L 197.26875 40.877125 
L 199.71 42.033988 
L 202.15125 47.340201 
L 204.5925 53.780751 
L 207.03375 58.813467 
L 209.475 61.655682 
L 211.91625 62.507994 
L 214.3575 61.698804 
L 216.79875 59.329873 
L 219.24 55.279422 
L 221.68125 49.526591 
L 224.1225 43.010668 
L 226.56375 38.688878 
L 229.005 40.152205 
L 231.44625 47.048903 
L 233.8875 55.137891 
L 236.32875 61.233668 
L 238.77 64.709356 
L 241.21125 66.108993 
L 243.6525 66.024542 
L 246.09375 64.71533 
L 248.535 62.062845 
L 250.97625 57.625046 
L 253.4175 50.885275 
L 255.85875 42.256941 
L 258.3 35.291757 
L 260.74125 36.234944 
L 263.1825 45.675322 
L 265.62375 56.846066 
L 268.065 65.013685 
L 270.50625 69.808784 
L 272.9475 72.45843 
L 277.83 75.739923 
L 280.27125 77.853469 
L 282.7125 81.140515 
L 285.15375 86.390183 
L 287.595 94.317153 
L 290.03625 104.131299 
L 292.4775 110.586059 
L 294.91875 106.488668 
L 299.80125 82.275245 
L 302.2425 74.38953 
L 304.68375 69.83073 
L 307.125 66.9665 
L 309.56625 64.471107 
L 312.0075 61.383838 
L 314.44875 56.9364 
L 316.89 50.610733 
L 319.33125 42.921108 
L 321.7725 37.010224 
L 324.21375 37.851759 
L 326.655 45.853278 
L 329.09625 55.615272 
L 331.5375 62.976684 
L 333.97875 67.293366 
L 336.42 69.433357 
L 338.86125 70.317803 
L 341.3025 70.525383 
L 343.74375 70.31949 
L 346.185 69.741383 
L 348.62625 68.658853 
L 351.0675 66.746275 
L 353.50875 63.39424 
L 355.95 57.582511 
L 358.39125 48.063369 
L 360.8325 35.414504 
L 363.27375 27.538512 
L 365.715 35.345557 
L 368.15625 52.621384 
L 370.5975 67.076569 
L 373.03875 76.038883 
L 375.48 81.463313 
L 385.245 97.65964 
L 387.68625 99.963555 
L 390.1275 99.124397 
L 392.56875 95.379807 
L 395.01 90.609744 
L 397.45125 86.639115 
L 399.8925 84.279553 
L 402.33375 83.598593 
L 404.775 84.44908 
L 407.21625 86.735477 
L 409.6575 90.38595 
L 414.54 99.447898 
L 416.98125 101.41737 
L 419.4225 99.310251 
L 421.86375 94.105998 
L 424.305 88.458902 
L 426.74625 84.263284 
L 429.1875 82.028655 
L 431.62875 81.577048 
L 434.07 82.671723 
L 436.51125 85.255662 
L 438.9525 89.393256 
L 443.835 100.483016 
L 446.27625 103.317559 
L 448.7175 100.892965 
L 451.15875 94.377225 
L 453.6 87.388884 
L 453.6 87.388884 
" style="fill:none;stroke:#1f77b4;stroke-linecap:square;stroke-width:1.5;"/>
   </g>
   <g id="line2d_5">
    <path clip-path="url(#p1daf06e5af)" d="M 65.44125 48.376794 
L 67.8825 39.589472 
L 70.32375 34.387129 
L 72.765 38.440149 
L 77.6475 59.966486 
L 80.08875 67.069116 
L 82.53 71.103027 
L 84.97125 73.405699 
L 87.4125 75.085228 
L 89.85375 76.924308 
L 92.295 79.573194 
L 94.73625 83.7439 
L 97.1775 90.223557 
L 102.06 107.951089 
L 104.50125 109.456534 
L 106.9425 100.514837 
L 109.38375 87.975649 
L 111.825 78.279528 
L 114.26625 72.415046 
L 116.7075 69.027223 
L 121.59 64.224782 
L 124.03125 60.903639 
L 126.4725 55.958103 
L 128.91375 48.937323 
L 131.355 40.788526 
L 133.79625 35.65313 
L 136.2375 38.636046 
L 141.12 58.271975 
L 143.56125 65.199377 
L 146.0025 69.114227 
L 148.44375 71.128907 
L 150.885 72.212865 
L 155.7675 73.858613 
L 158.20875 75.157717 
L 160.65 77.31615 
L 163.09125 81.003497 
L 165.5325 87.232136 
L 167.97375 96.980638 
L 170.415 108.766082 
L 172.85625 114.107395 
L 175.2975 104.867959 
L 177.73875 88.788446 
L 180.18 76.009903 
L 182.62125 68.228618 
L 185.0625 63.527046 
L 189.945 56.197798 
L 192.38625 51.680558 
L 194.8275 46.630454 
L 197.26875 42.531974 
L 199.71 41.720165 
L 202.15125 45.150347 
L 204.5925 50.937565 
L 207.03375 56.339138 
L 209.475 59.902382 
L 211.91625 61.440413 
L 214.3575 61.207059 
L 216.79875 59.378231 
L 219.24 55.932445 
L 221.68125 50.859469 
L 224.1225 44.813072 
L 226.56375 40.071645 
L 229.005 39.994547 
L 231.44625 45.353721 
L 233.8875 52.881614 
L 236.32875 59.145216 
L 238.77 62.960216 
L 241.21125 64.578649 
L 243.6525 64.516225 
L 246.09375 63.034063 
L 248.535 60.035826 
L 250.97625 55.161742 
L 253.4175 48.213247 
L 255.85875 40.412108 
L 258.3 36.000279 
L 260.74125 39.521813 
L 265.62375 58.476778 
L 268.065 64.938017 
L 270.50625 68.512673 
L 272.9475 70.236179 
L 275.38875 70.973172 
L 277.83 71.231181 
L 280.27125 71.252379 
L 282.7125 71.12246 
L 285.15375 70.833745 
L 287.595 70.302168 
L 290.03625 69.34397 
L 292.4775 67.606714 
L 294.91875 64.437321 
L 297.36 58.695448 
L 299.80125 48.80989 
L 302.2425 34.801911 
L 304.68375 25.20828 
L 307.125 33.830142 
L 309.56625 53.477269 
L 312.0075 69.470369 
L 314.44875 79.107547 
L 316.89 84.750327 
L 319.33125 88.587097 
L 321.7725 91.755458 
L 324.21375 94.486014 
L 326.655 96.36803 
L 329.09625 96.78917 
L 331.5375 95.555641 
L 336.42 90.739619 
L 338.86125 88.927017 
L 341.3025 88.192582 
L 343.74375 88.633607 
L 346.185 90.163978 
L 348.62625 92.528239 
L 351.0675 95.188835 
L 353.50875 97.244821 
L 355.95 97.704393 
L 358.39125 96.185064 
L 363.27375 90.34801 
L 365.715 88.18345 
L 368.15625 87.281638 
L 370.5975 87.719702 
L 373.03875 89.40681 
L 375.48 92.110423 
L 377.92125 95.293235 
L 380.3625 97.924929 
L 382.80375 98.714048 
L 385.245 97.032718 
L 387.68625 93.624074 
L 390.1275 90.00135 
L 392.56875 87.349321 
L 395.01 86.158708 
L 397.45125 86.481002 
L 399.8925 88.221296 
L 402.33375 91.203266 
L 404.775 94.970258 
L 407.21625 98.44249 
L 409.6575 99.959274 
L 412.09875 98.388266 
L 414.54 94.402786 
L 416.98125 89.928131 
L 419.4225 86.529833 
L 421.86375 84.813462 
L 424.305 84.796861 
L 426.74625 86.359049 
L 429.1875 89.397772 
L 431.62875 93.657372 
L 434.07 98.246256 
L 436.51125 101.242222 
L 438.9525 100.589348 
L 441.39375 96.298404 
L 443.835 90.689444 
L 446.27625 86.06299 
L 448.7175 83.363001 
L 451.15875 82.594487 
L 453.6 83.540063 
L 453.6 83.540063 
" style="fill:none;stroke:#ff7f0e;stroke-linecap:square;stroke-width:1.5;"/>
   </g>
   <g id="patch_3">
    <path d="M 63 126 
L 63 17.28 
" style="fill:none;stroke:#000000;stroke-linecap:square;stroke-linejoin:miter;stroke-width:0.8;"/>
   </g>
   <g id="patch_4">
    <path d="M 453.6 126 
L 453.6 17.28 
" style="fill:none;stroke:#000000;stroke-linecap:square;stroke-linejoin:miter;stroke-width:0.8;"/>
   </g>
   <g id="patch_5">
    <path d="M 63 126 
L 453.6 126 
" style="fill:none;stroke:#000000;stroke-linecap:square;stroke-linejoin:miter;stroke-width:0.8;"/>
   </g>
   <g id="patch_6">
    <path d="M 63 17.28 
L 453.6 17.28 
" style="fill:none;stroke:#000000;stroke-linecap:square;stroke-linejoin:miter;stroke-width:0.8;"/>
   </g>
  </g>
 </g>
 <defs>
  <clipPath id="p1daf06e5af">
   <rect height="108.72" width="390.6" x="63" y="17.28"/>
  </clipPath>
 </defs>
</svg>
